<svg width="17" height="14" viewBox="0 0 17 14" fill="none" xmlns="http://www.w3.org/2000/svg">
<path d="M14.4184 3.74113C14.4285 3.88325 14.4285 4.02541 14.4285 4.16753C14.4285 8.50253 11.1512 13.4975 5.16133 13.4975C3.31595 13.4975 1.60168 12.9594 0.159668 12.0254C0.421861 12.0558 0.673935 12.066 0.946216 12.066C2.46887 12.066 3.87057 11.5483 4.98989 10.665C3.55797 10.6345 2.35797 9.69038 1.94452 8.39088C2.14621 8.42131 2.34788 8.44163 2.55966 8.44163C2.85209 8.44163 3.14455 8.401 3.4168 8.32997C1.92437 8.02538 0.805016 6.7056 0.805016 5.11169V5.07109C1.23861 5.31475 1.74285 5.46703 2.27726 5.48731C1.39996 4.89847 0.825192 3.89341 0.825192 2.75634C0.825192 2.14722 0.986506 1.58884 1.26888 1.10153C2.87224 3.09138 5.28232 4.39084 7.9848 4.533C7.93439 4.28934 7.90413 4.03556 7.90413 3.78175C7.90413 1.97463 9.35623 0.502563 11.1613 0.502563C12.0991 0.502563 12.9461 0.898501 13.5411 1.53809C14.2772 1.39597 14.9831 1.12184 15.6083 0.74622C15.3662 1.50766 14.852 2.14725 14.1764 2.55331C14.8318 2.48228 15.4671 2.2995 16.052 2.04572C15.6084 2.69544 15.0537 3.27409 14.4184 3.74113Z" fill="black"/>
</svg>
